<?xml version="1.0" standalone="no"?>
<!DOCTYPE svg PUBLIC "-//W3C//DTD SVG 20010904//EN"
 "http://www.w3.org/TR/2001/REC-SVG-20010904/DTD/svg10.dtd">
<svg version="1.0" xmlns="http://www.w3.org/2000/svg"
 width="416.000000pt" height="416.000000pt" viewBox="0 0 416.000000 416.000000"
 preserveAspectRatio="xMidYMid meet">
<metadata>
Created by potrace 1.11, written by Peter Selinger 2001-2013
</metadata>
<g transform="translate(0.000000,416.000000) scale(0.100000,-0.100000)"
fill="#000000" stroke="none">
<path d="M0 3180 c0 -596 4 -980 9 -980 5 0 18 11 28 24 18 22 22 23 83 13 36
-5 75 -10 88 -9 18 0 21 -4 16 -20 -3 -11 -2 -18 3 -15 5 3 9 -3 10 -13 1 -11
-4 -19 -10 -17 -7 1 -11 -6 -9 -15 2 -10 -3 -18 -10 -19 -7 0 -4 -4 7 -9 18
-7 17 -8 -10 -15 -16 -5 -37 -16 -46 -26 -12 -14 -27 -18 -59 -15 -23 2 -46 9
-50 16 -5 9 -9 9 -14 1 -11 -16 -26 -13 -20 4 4 8 1 15 -5 15 -8 0 -11 -81 -9
-292 l3 -293 100 -12 c55 -6 181 -21 280 -33 99 -11 236 -32 305 -45 178 -34
270 -46 282 -39 7 4 8 27 4 62 -4 31 -4 54 -1 50 3 -3 9 -31 13 -64 7 -56 8
-58 42 -66 57 -12 64 -5 57 60 -5 51 -4 54 7 32 8 -14 16 -42 20 -63 5 -26 14
-41 29 -46 38 -15 41 5 11 96 -41 128 -73 204 -74 174 0 -16 -4 -21 -9 -15 -5
5 -18 67 -27 137 -21 154 -17 192 47 430 5 21 14 35 19 32 6 -3 15 5 22 20 8
18 25 29 61 40 57 17 103 19 111 6 3 -5 14 -7 24 -5 9 2 23 0 31 -5 11 -7 11
-13 -3 -32 -9 -13 -16 -18 -16 -11 0 6 -6 12 -14 12 -8 0 -17 6 -19 13 -3 6
-6 0 -6 -14 -2 -55 95 -97 140 -60 21 17 21 18 5 50 -22 41 -103 81 -166 81
-26 0 -50 4 -55 9 -6 5 -28 11 -50 13 l-40 4 30 13 c20 8 57 11 108 9 60 -4
74 -2 60 6 -24 15 -166 11 -199 -6 -16 -8 -32 -27 -40 -48 l-12 -35 -10 25
c-42 107 -54 184 -30 208 16 16 17 60 1 66 -7 3 -10 12 -7 21 9 22 -5 106 -17
100 -5 -4 -9 -21 -10 -38 0 -18 -4 -41 -9 -52 -7 -17 -9 -14 -10 15 l-2 35
-10 -35 c-6 -22 -6 -66 0 -130 9 -87 8 -301 -2 -410 -2 -25 -5 -51 -5 -57 -1
-7 -6 -13 -12 -13 -5 0 -8 4 -5 8 3 5 -4 16 -15 25 -10 9 -19 29 -19 44 0 39
-11 74 -21 68 -9 -6 -5 277 6 320 7 29 7 29 -8 10 -19 -24 -21 -13 -7 52 5 26
12 68 14 93 5 52 20 130 36 180 6 19 13 46 16 59 7 36 59 189 85 251 53 130
67 159 116 259 29 57 50 107 48 112 -3 4 6 24 20 45 14 20 25 42 25 49 0 6 8
20 18 31 9 11 26 37 37 59 11 21 25 43 30 49 6 6 26 32 44 57 18 26 68 75 112
109 43 34 79 68 79 74 0 22 92 55 184 66 93 12 146 7 202 -16 36 -15 47 -29
15 -19 -11 3 -26 -1 -36 -11 -14 -15 -22 -16 -49 -6 -18 7 -43 12 -55 12 -19
0 -21 -3 -12 -14 7 -8 21 -12 31 -9 11 3 20 1 20 -5 0 -13 -29 -24 -42 -16 -6
4 -6 -1 1 -13 13 -26 6 -33 -36 -33 -40 0 -107 -55 -84 -70 9 -5 1 -17 -29
-41 -22 -19 -58 -48 -78 -66 -20 -18 -57 -43 -81 -55 -71 -37 -190 -143 -175
-157 4 -3 9 0 11 7 6 16 23 15 23 -2 0 -16 27 -29 41 -20 11 6 -4 -34 -37
-100 -24 -47 -54 -151 -54 -188 0 -12 5 -15 16 -11 9 3 15 2 12 -3 -2 -5 -16
-34 -30 -64 -15 -30 -30 -80 -33 -110 -7 -63 5 -58 25 10 8 25 22 57 32 72 10
14 18 33 18 41 0 9 5 19 11 22 6 4 8 13 5 20 -2 7 2 16 10 19 22 8 8 25 -16
19 -11 -3 -20 0 -20 6 0 6 9 11 20 11 11 0 19 3 18 8 -4 21 16 63 28 58 8 -3
14 0 14 6 0 16 102 113 120 113 8 0 15 5 16 10 1 17 33 85 39 85 4 0 4 -13 0
-28 -7 -33 27 -74 46 -55 8 8 8 13 0 17 -20 13 -12 28 12 20 31 -10 38 -24 32
-64 -5 -33 -4 -34 10 -16 8 11 12 29 9 42 -6 23 10 42 21 23 10 -15 12 -69 3
-69 -4 0 -6 -6 -3 -12 2 -7 6 -45 10 -85 9 -123 20 -131 54 -40 40 107 40 106
40 60 1 -24 5 -43 11 -43 5 0 26 16 46 36 31 31 40 36 69 31 35 -6 54 7 59 38
2 17 23 35 40 35 5 0 6 -19 3 -42 l-6 -43 25 30 24 30 18 -22 c9 -12 31 -23
47 -25 19 -2 33 -11 39 -24 7 -16 17 -21 40 -19 43 3 47 28 20 109 -13 38 -21
73 -19 77 6 9 -130 136 -175 163 l-35 21 35 5 35 6 -35 22 c-27 17 -30 22 -15
22 34 -1 155 -86 155 -109 0 -5 6 -14 13 -18 21 -13 91 -122 126 -196 32 -68
121 -328 121 -353 0 -8 4 -14 9 -14 5 0 8 -17 6 -37 -1 -22 3 -42 11 -48 13
-11 17 -26 15 -63 -1 -14 -5 -21 -12 -16 -8 4 -9 -1 -3 -17 8 -25 9 -45 6
-122 -2 -54 -22 -57 -22 -3 0 41 -36 88 -50 66 -6 -10 -4 -20 6 -31 21 -23 17
-30 -11 -23 -27 7 -27 9 -27 -86 -1 -29 -6 -49 -17 -57 -23 -16 -36 -4 -14 14
10 8 13 12 7 9 -13 -6 -37 17 -28 27 3 3 2 16 -2 29 -7 21 -9 19 -16 -17 -5
-22 -10 -62 -11 -88 -1 -44 -3 -48 -23 -43 -43 11 -40 -14 15 -162 48 -129 54
-122 -102 -115 -154 7 -191 2 -232 -31 -37 -30 -25 -46 18 -24 18 10 52 20 77
23 80 10 195 -35 131 -52 -28 -7 -27 -28 4 -59 l24 -24 53 20 c58 22 70 19 43
-10 -10 -11 -15 -23 -11 -28 4 -4 18 6 31 22 22 27 26 29 79 23 52 -5 79 3 56
18 -5 3 -10 28 -10 54 0 26 -6 53 -12 59 -10 10 -10 17 0 32 9 15 9 22 -1 32
-19 19 -28 46 -17 53 6 4 10 15 10 26 0 11 5 17 10 14 6 -4 8 -11 5 -16 -4 -5
-2 -9 3 -9 5 0 22 -34 37 -75 24 -67 33 -81 50 -72 9 4 35 -54 41 -93 3 -21
16 -48 28 -61 13 -14 21 -30 19 -36 -2 -6 1 -14 6 -18 6 -3 11 -17 11 -31 0
-14 7 -27 15 -30 10 -4 13 -13 10 -25 -4 -12 -1 -21 9 -25 12 -5 13 -10 4 -30
-8 -17 -8 -27 2 -39 9 -11 9 -15 1 -15 -8 0 -6 -6 4 -16 13 -14 14 -18 3 -25
-11 -7 -11 -12 0 -30 16 -25 6 -41 -11 -19 -14 18 -59 20 -64 3 -2 -6 1 -14 6
-18 18 -10 12 -25 -9 -25 -23 0 -26 -10 -8 -28 9 -9 9 -12 0 -12 -7 0 -12 -13
-12 -28 0 -15 -5 -33 -12 -40 -9 -9 -9 -12 2 -12 10 0 9 -5 -4 -19 -26 -29
-44 -101 -35 -136 5 -17 5 -33 -1 -39 -5 -5 -2 -18 7 -33 14 -21 14 -25 -1
-42 -9 -10 -14 -25 -10 -35 3 -9 1 -23 -6 -31 -10 -12 -9 -15 4 -15 10 0 14
-4 11 -10 -3 -5 -15 -10 -26 -10 -10 0 -19 -4 -19 -10 0 -5 7 -10 16 -10 8 0
12 -5 9 -10 -4 -6 -10 -8 -15 -5 -12 7 -24 -35 -13 -45 17 -17 203 -63 363
-90 25 -4 87 -17 139 -28 67 -16 98 -19 112 -11 12 6 19 6 19 0 0 -12 64 -31
107 -31 29 0 32 3 35 37 2 20 8 38 14 40 12 4 29 -41 25 -69 -3 -25 43 -45
133 -57 42 -6 79 -11 82 -11 2 0 4 9 4 21 0 19 3 18 29 -10 16 -17 38 -31 48
-31 10 0 24 -5 31 -12 9 -9 15 -9 23 -1 8 8 4 20 -15 46 -14 18 -26 38 -26 42
0 5 6 0 14 -11 21 -27 26 -16 16 36 -13 64 -13 119 0 100 5 -8 10 -25 10 -36
0 -28 37 -143 54 -169 12 -18 88 -48 156 -61 8 -1 31 -7 50 -12 53 -14 54 -14
74 -13 16 1 18 7 12 59 -11 86 -33 188 -61 277 -39 126 -29 167 16 67 51 -112
71 -199 71 -316 0 -45 4 -87 10 -93 6 -7 24 -13 40 -13 25 0 29 3 25 20 -3 11
-2 20 1 20 11 0 11 313 1 330 -8 11 -9 8 -5 -12 4 -16 1 -28 -7 -31 -12 -4
-13 -21 -6 -180 2 -42 3 -77 1 -77 -9 0 -32 74 -32 101 0 18 -5 48 -12 66 -9
25 -9 41 -1 63 6 17 8 30 3 30 -4 0 -8 39 -9 87 -1 47 -4 89 -6 93 -2 4 -9 40
-14 81 -6 41 -17 111 -24 157 -7 45 -11 85 -8 87 2 3 14 5 25 6 12 0 15 3 9 6
-7 2 -13 11 -13 19 0 8 -4 22 -9 32 -30 59 -52 114 -48 118 7 7 57 -55 57 -72
0 -8 10 -24 21 -35 17 -17 19 -23 8 -30 -10 -6 -11 -9 -1 -9 6 0 12 -8 12 -17
0 -10 14 -47 30 -81 30 -63 32 -100 3 -65 -14 17 -14 16 -9 -7 3 -14 6 -28 6
-32 0 -4 7 -5 15 -2 8 4 15 1 15 -5 0 -6 -4 -11 -9 -11 -5 0 -8 -8 -6 -17 2
-10 4 -44 4 -75 1 -32 5 -58 11 -58 6 0 10 503 10 1450 l0 1450 -2080 0 -2080
0 0 -980z m2715 910 c6 -4 23 -10 39 -14 16 -4 41 -16 54 -27 26 -20 47 -26
37 -9 -3 6 1 7 9 4 19 -7 21 -20 4 -27 -7 -3 2 -3 20 0 19 3 32 1 32 -5 0 -6
16 -16 36 -22 31 -10 35 -15 30 -36 -4 -13 -2 -24 4 -24 5 0 29 -13 52 -30 24
-16 54 -32 68 -34 82 -16 148 -62 142 -98 -2 -10 1 -18 6 -18 6 0 37 -27 70
-60 34 -33 66 -60 71 -60 6 0 11 -4 11 -10 0 -17 -25 -11 -94 20 -78 34 -91
19 -18 -22 46 -27 46 -27 17 -28 -27 -1 -28 -2 -12 -14 11 -9 15 -20 11 -31
-5 -12 -3 -16 5 -14 14 5 91 -64 91 -81 0 -15 -8 -12 -32 10 -26 24 -40 26
-32 5 4 -8 10 -15 16 -15 5 0 6 -4 3 -10 -3 -5 1 -10 9 -10 10 0 14 -10 14
-30 -1 -16 4 -36 11 -44 6 -8 14 -24 16 -37 3 -12 11 -43 20 -68 8 -25 16 -61
18 -79 2 -17 7 -35 10 -39 4 -3 7 -17 7 -29 0 -22 20 -83 42 -130 5 -11 9 -27
7 -35 -3 -20 12 -88 21 -94 4 -3 6 -35 5 -72 -2 -37 0 -75 6 -84 6 -11 5 -20
-1 -24 -5 -3 -10 -1 -10 4 0 20 -18 11 -25 -11 -11 -31 -13 -108 -3 -114 4 -3
3 -15 -2 -27 -5 -12 -11 -34 -14 -49 -9 -42 -22 -34 -21 13 0 22 -3 43 -7 45
-5 3 -8 18 -8 34 0 16 -4 32 -10 35 -5 3 -10 19 -10 35 0 16 -9 46 -20 66 -12
20 -28 66 -36 102 -8 36 -22 81 -30 100 -8 19 -14 50 -14 68 0 19 -4 34 -10
34 -5 0 -10 5 -10 10 0 18 15 10 32 -17 12 -20 18 -23 18 -11 0 9 -4 20 -10
23 -5 3 -10 11 -10 16 0 6 5 7 10 4 13 -8 -11 47 -25 57 -5 4 -7 8 -3 8 3 0
-3 24 -14 53 -10 28 -21 59 -22 66 -2 8 -8 17 -14 19 -7 2 -12 8 -12 13 0 6 5
7 11 4 5 -4 3 10 -6 32 -9 21 -19 45 -23 53 -3 8 -25 46 -49 83 -23 37 -43 70
-43 74 0 3 14 3 30 0 17 -4 30 -3 30 1 0 8 -34 53 -66 87 -12 13 -23 29 -26
37 -3 7 -18 20 -34 28 -29 15 -76 61 -70 68 2 2 15 -8 29 -22 15 -14 31 -26
37 -26 5 0 36 -25 67 -55 32 -30 61 -55 66 -55 18 0 4 28 -23 48 -16 13 -27
28 -24 36 3 7 -3 16 -13 20 -10 3 -31 15 -48 26 -16 11 -41 25 -55 30 -14 6
-39 18 -57 27 -18 8 -38 11 -45 7 -7 -4 -10 -3 -5 1 7 8 -81 54 -157 81 -47
17 -46 17 -46 0 0 -12 -12 -9 -57 11 -32 14 -61 30 -65 36 -10 16 0 27 20 21
9 -3 -5 6 -32 21 -28 14 -56 25 -64 25 -8 0 -30 9 -48 21 -21 12 -46 19 -66
17 -33 -3 -32 -3 47 -59 87 -61 90 -64 195 -189 170 -202 278 -325 312 -358
21 -19 35 -39 32 -43 -3 -5 0 -9 5 -9 17 0 13 -27 -5 -34 -19 -7 -34 0 -34 17
-1 16 -67 87 -81 87 -6 0 -8 -7 -5 -17 6 -14 3 -14 -15 3 l-23 19 22 -35 c12
-19 30 -51 39 -70 10 -19 21 -37 25 -40 10 -8 29 -62 24 -68 -3 -2 -8 6 -11
19 -4 13 -17 32 -30 42 -23 17 -24 17 -20 -5 3 -11 14 -32 26 -45 22 -22 22
-23 3 -23 -20 0 -64 49 -64 70 0 5 -5 10 -11 10 -7 0 -9 -9 -4 -22 26 -87 26
-127 0 -92 -11 16 -14 15 -30 -10 -17 -26 -17 -27 1 -41 17 -13 17 -14 2 -15
-14 0 -16 -6 -11 -30 3 -17 1 -30 -4 -30 -9 0 -14 14 -29 78 -1 8 -10 22 -19
32 -9 10 -14 23 -11 29 3 5 -1 11 -11 13 -13 2 -17 14 -17 55 -1 39 -6 57 -24
75 -12 14 -22 29 -22 35 0 6 -16 45 -35 87 -19 43 -35 86 -35 96 0 12 -13 25
-34 35 -27 13 -38 28 -56 75 -13 34 -19 67 -15 79 4 15 -4 34 -29 67 -20 26
-36 51 -36 57 0 16 36 -21 56 -58 19 -36 32 -43 50 -26 21 22 149 -124 191
-218 17 -37 27 -51 32 -42 7 10 13 11 31 1 34 -18 32 -7 -6 35 -19 22 -52 60
-72 85 -20 25 -54 63 -74 85 -21 22 -38 45 -38 51 0 6 -18 30 -40 54 -22 24
-40 47 -40 52 0 4 -3 7 -7 6 -12 -4 -120 73 -167 118 -7 6 -27 19 -45 28 -42
22 -32 33 16 18 42 -12 318 -23 306 -12 -12 11 -104 39 -138 43 -17 2 -36 6
-42 10 -7 4 -30 5 -52 1 -37 -6 -101 11 -101 27 0 9 161 20 220 16 25 -2 70
-1 100 3 54 6 76 4 95 -10z m-480 -10 c3 -5 1 -10 -4 -10 -6 0 -11 5 -11 10 0
6 2 10 4 10 3 0 8 -4 11 -10z m-258 -116 c-3 -3 -12 -4 -19 -1 -8 3 -5 6 6 6
11 1 17 -2 13 -5z m336 -139 c16 -16 49 -61 74 -98 29 -45 50 -67 59 -63 9 3
16 -4 20 -22 3 -15 11 -43 19 -62 19 -52 45 -140 45 -156 0 -8 4 -14 9 -14 5
0 12 -10 16 -22 11 -36 11 -158 0 -161 -7 -3 -6 -9 0 -18 15 -19 32 -76 38
-124 3 -22 3 -32 1 -22 -5 16 -9 19 -36 21 -17 1 -35 36 -43 85 -4 25 -14 45
-26 51 -10 6 -19 21 -19 34 0 13 -6 36 -14 52 -19 38 -38 86 -42 103 -1 8 -8
17 -15 21 -6 5 -12 27 -12 51 1 24 -4 50 -9 57 -6 6 -7 12 -3 12 4 0 2 7 -5
15 -6 8 -9 19 -5 25 4 6 -3 19 -15 30 -15 13 -24 37 -30 78 -4 32 -12 68 -18
78 -5 10 -20 39 -33 64 -21 41 -21 44 -3 30 10 -8 32 -28 47 -45z m-508 25
c-3 -5 -17 -10 -31 -10 -13 0 -24 5 -24 10 0 6 14 10 31 10 17 0 28 -4 24 -10z
m965 -56 c0 -8 -5 -12 -10 -9 -6 4 -8 11 -5 16 9 14 15 11 15 -7z m-315 -74
c3 -5 2 -10 -4 -10 -5 0 -13 5 -16 10 -3 6 -2 10 4 10 5 0 13 -4 16 -10z
m-625 -75 c0 -14 -24 -27 -34 -18 -3 3 -1 14 5 25 11 20 29 16 29 -7z m-180 1
c0 -17 -14 -29 -23 -20 -8 8 3 34 14 34 5 0 9 -6 9 -14z m116 -50 c-3 -14 -11
-26 -16 -26 -11 0 -14 73 -3 84 12 12 26 -31 19 -58z m544 -20 c0 -5 12 -23
27 -38 17 -18 22 -28 12 -27 -19 0 -54 47 -63 84 -6 28 -5 29 9 11 8 -11 15
-24 15 -30z m-865 -46 c-10 -11 -23 -20 -28 -20 -6 0 0 11 13 25 27 29 42 25
15 -5z m1518 -24 c9 -13 22 -29 29 -37 12 -12 48 -76 48 -85 0 -2 -16 12 -36
31 -20 19 -39 35 -42 35 -15 1 -42 49 -36 64 9 22 19 20 37 -8z m-354 -106 c0
-10 -3 -8 -9 5 -12 27 -12 43 0 25 5 -8 9 -22 9 -30z m991 -28 c0 -7 7 -15 15
-19 9 -3 22 -18 30 -33 8 -16 20 -34 27 -42 13 -13 58 -100 58 -111 0 -3 20
-38 44 -79 35 -60 45 -89 55 -157 13 -90 6 -327 -11 -348 -5 -6 -7 -33 -4 -60
5 -40 5 -44 -5 -23 -6 14 -12 43 -14 65 -2 22 -11 74 -20 115 -8 41 -15 96
-15 123 0 26 -5 47 -11 47 -5 0 -7 -6 -3 -12 5 -9 4 -10 -3 -3 -6 6 -13 44
-17 85 -3 41 -6 76 -6 78 0 2 -4 1 -8 -2 -4 -2 -8 3 -9 12 -4 54 -9 82 -15 82
-4 0 -5 7 -2 15 4 8 1 15 -6 15 -6 0 -10 10 -9 23 3 25 -9 84 -22 107 -5 8
-14 28 -19 44 -15 40 -20 29 -10 -21 4 -24 4 -43 -1 -43 -7 0 -35 71 -30 79 2
2 -1 7 -6 10 -12 8 -33 93 -26 105 7 10 42 -33 43 -52z m-165 28 c3 -5 2 -10
-4 -10 -5 0 -13 5 -16 10 -3 6 -2 10 4 10 5 0 13 -4 16 -10z m203 -23 c5 -24
-15 -21 -21 4 -3 13 -1 19 6 16 7 -2 13 -11 15 -20z m-1008 -18 c0 -6 -4 -7
-10 -4 -5 3 -10 11 -10 16 0 6 5 7 10 4 6 -3 10 -11 10 -16z m790 11 c0 -5 -4
-10 -10 -10 -5 0 -10 5 -10 10 0 6 5 10 10 10 6 0 10 -4 10 -10z m119 -103
c22 -42 27 -77 11 -77 -5 0 -10 11 -10 24 0 14 -4 28 -10 31 -11 7 -80 122
-80 133 1 12 68 -71 89 -111z m60 -127 c0 -20 -3 -17 -14 15 -19 51 -18 67 0
35 8 -14 14 -36 14 -50z m-356 -57 c27 -86 37 -150 41 -280 4 -110 4 -118 -4
-58 -26 186 -53 351 -61 361 -7 9 -3 24 7 24 1 0 9 -21 17 -47z m-263 11 c0
-14 -4 -23 -10 -19 -5 3 -10 15 -10 26 0 10 5 19 10 19 6 0 10 -12 10 -26z
m-400 -35 c0 -5 -4 -9 -10 -9 -5 0 -10 7 -10 16 0 8 5 12 10 9 6 -3 10 -10 10
-16z m278 -62 c0 -29 7 -80 17 -112 10 -34 19 -103 21 -160 2 -55 5 -121 8
-147 3 -26 2 -50 -3 -52 -4 -3 -16 47 -25 112 -18 118 -34 185 -35 149 -1 -10
-5 -15 -11 -12 -15 9 -12 43 5 53 14 7 14 18 5 78 -6 38 -9 80 -6 94 2 14 5
33 5 43 1 10 5 16 10 13 5 -4 9 -30 9 -59z m-248 -13 c0 -20 -7 -17 -20 6 -9
16 -8 18 5 14 8 -4 15 -12 15 -20z m143 11 c-3 -9 -8 -14 -10 -11 -3 3 -2 9 2
15 9 16 15 13 8 -4z m871 -47 c5 -32 4 -48 -3 -48 -7 0 -11 22 -11 52 0 62 5
60 14 -4z m-1017 -20 c-3 -8 -6 -5 -6 6 -1 11 2 17 5 13 3 -3 4 -12 1 -19z
m1023 -67 c0 -11 -4 -23 -10 -26 -6 -4 -10 5 -10 19 0 14 5 26 10 26 6 0 10
-9 10 -19z m-786 -187 c4 -31 9 -104 12 -162 3 -58 9 -127 13 -154 5 -31 5
-48 -2 -45 -5 1 -11 23 -14 47 -2 25 -12 115 -22 200 -9 85 -15 161 -13 167 8
25 19 2 26 -53z m-384 2 c0 -3 -4 -8 -10 -11 -5 -3 -10 -1 -10 4 0 6 5 11 10
11 6 0 10 -2 10 -4z m930 -6 c0 -5 -2 -10 -4 -10 -3 0 -8 5 -11 10 -3 6 -1 10
4 10 6 0 11 -4 11 -10z m7 -42 c-3 -8 -6 -5 -6 6 -1 11 2 17 5 13 3 -3 4 -12
1 -19z m143 -13 c7 -8 19 -15 26 -15 9 0 14 -13 15 -37 2 -92 9 -158 19 -188
10 -31 8 -120 -3 -131 -7 -8 -20 78 -21 141 -1 37 -5 50 -16 50 -16 0 -28 43
-45 163 -6 34 5 41 25 17z m-1080 -51 c0 -8 -5 -12 -10 -9 -6 4 -8 11 -5 16 9
14 15 11 15 -7z m860 -110 c14 -43 11 -161 -5 -209 l-13 -40 -3 40 c-1 22 -3
60 -4 85 -1 25 -5 84 -9 132 -9 95 3 144 17 68 4 -25 12 -59 17 -76z m-925 68
c-3 -4 -10 0 -15 8 -6 9 -5 17 3 22 13 8 24 -19 12 -30z m75 -35 c0 -24 -3
-28 -10 -17 -13 20 -13 63 0 55 6 -3 10 -21 10 -38z m1119 -331 c-9 -8 -10 -7
-5 7 3 10 7 24 7 30 1 7 3 4 6 -7 3 -10 -1 -23 -8 -30z m-779 -107 c0 -6 -4
-7 -10 -4 -5 3 -10 11 -10 16 0 6 5 7 10 4 6 -3 10 -11 10 -16z m937 -1 c-3
-8 -6 -5 -6 6 -1 11 2 17 5 13 3 -3 4 -12 1 -19z m-340 -90 c-3 -7 -5 -2 -5
12 0 14 2 19 5 13 2 -7 2 -19 0 -25z m-2538 -18 c0 -10 -3 -8 -9 5 -12 27 -12
43 0 25 5 -8 9 -22 9 -30z m2279 -62 c-12 -18 -27 -36 -33 -40 -5 -4 -6 -10
-2 -14 7 -7 -26 -67 -50 -92 -7 -7 -13 -18 -13 -23 0 -5 -9 -19 -20 -31 l-20
-22 0 48 c0 45 3 51 67 117 37 37 71 76 76 84 5 9 11 14 14 12 3 -3 -6 -20
-19 -39z m-2262 -9 c1 -28 -2 -37 -9 -30 -13 13 -15 71 -2 71 6 0 11 -18 11
-41z m2494 21 c0 -5 -4 -10 -10 -10 -5 0 -10 5 -10 10 0 6 5 10 10 10 6 0 10
-4 10 -10z m-120 -14 c0 -8 -4 -17 -9 -20 -9 -6 -41 -93 -65 -178 -9 -32 -19
-58 -22 -58 -7 0 3 68 18 125 24 90 78 181 78 131z m-499 -32 c14 -38 4 -41
-14 -5 -9 17 -11 31 -6 31 5 0 14 -12 20 -26z m429 17 c0 -31 -61 -137 -72
-125 -3 2 -11 -9 -18 -25 -14 -35 -45 -67 -34 -35 4 10 12 26 19 34 6 8 20 38
30 65 10 28 27 60 38 73 21 23 37 29 37 13z m180 2 c0 -7 -47 -179 -110 -408
-11 -38 -27 -118 -35 -177 -8 -59 -19 -126 -25 -150 -6 -24 -15 -63 -20 -88
-9 -42 -9 -41 -4 15 3 33 7 90 9 128 2 37 6 71 9 75 2 4 9 36 16 72 34 200
101 467 128 512 15 26 32 37 32 21z m-2397 -205 c3 -60 3 -108 -1 -108 -20 1
-33 21 -34 51 -1 31 9 200 12 224 5 27 18 -72 23 -167z m-63 115 c0 -7 7 -13
16 -13 8 0 12 -5 8 -11 -9 -14 -39 17 -49 51 -7 24 -7 24 9 5 8 -11 16 -26 16
-32z m2722 -35 c-6 -6 -8 -16 -6 -23 3 -7 1 -15 -3 -18 -5 -3 -8 6 -7 21 2 41
3 44 15 36 7 -4 7 -10 1 -16z m-11 -95 c2 -19 2 -52 0 -90 -1 -13 -7 -23 -16
-23 -18 0 -17 -3 -5 40 6 21 6 36 0 40 -11 7 -2 50 11 50 5 0 10 -8 10 -17z
m-2544 -85 c-3 -7 -5 -2 -5 12 0 14 2 19 5 13 2 -7 2 -19 0 -25z m2093 17 c0
-8 -4 -15 -10 -15 -5 0 -7 7 -4 15 4 8 8 15 10 15 2 0 4 -7 4 -15z m297 -57
c-3 -7 -5 -2 -5 12 0 14 2 19 5 13 2 -7 2 -19 0 -25z m115 -7 c-1 -7 1 -18 5
-25 5 -6 6 -31 2 -56 -4 -30 -7 -35 -7 -17 -2 35 -19 67 -35 67 -7 0 -19 5
-27 10 -13 8 -12 11 5 25 24 18 61 15 57 -4z m-426 -89 c-12 -11 -17 7 -9 34
l8 29 3 -28 c2 -16 1 -31 -2 -35z m264 43 c0 -8 -4 -15 -10 -15 -5 0 -7 7 -4
15 4 8 8 15 10 15 2 0 4 -7 4 -15z m-308 -18 c1 -25 -15 -98 -23 -102 -5 -4
-14 6 -20 22 -7 19 -7 29 0 31 6 2 9 8 6 13 -8 12 14 51 26 47 6 -2 11 -7 11
-11z m298 -86 c0 -17 -4 -31 -10 -31 -11 0 -11 0 -14 52 -2 30 -1 34 11 23 7
-8 13 -27 13 -44z m-220 7 c0 -5 -4 -8 -10 -8 -5 0 -10 10 -10 23 0 18 2 19
10 7 5 -8 10 -18 10 -22z m200 -64 c0 -8 -5 -12 -10 -9 -6 4 -8 11 -5 16 9 14
15 11 15 -7z m-359 -41 c-8 -15 -10 -15 -11 -2 0 17 10 32 18 25 2 -3 -1 -13
-7 -23z m361 -13 c5 -34 -7 -41 -15 -8 -5 19 -2 38 7 38 2 0 6 -13 8 -30z m16
-203 c-2 -30 -8 -43 -21 -45 -37 -7 -40 92 -4 137 9 11 13 7 20 -18 4 -17 6
-50 5 -74z m739 -19 c-3 -8 -6 -5 -6 6 -1 11 2 17 5 13 3 -3 4 -12 1 -19z"/>
<path d="M2520 3685 c0 -22 6 -38 15 -41 8 -4 15 -12 15 -20 0 -13 42 -64 53
-64 5 0 0 33 -10 60 -4 8 -5 18 -5 23 1 4 -2 7 -8 7 -5 0 -10 9 -10 20 0 13
-5 18 -15 14 -10 -4 -15 0 -15 15 0 12 -4 21 -10 21 -5 0 -10 -16 -10 -35z"/>
<path d="M3422 2858 c5 -15 28 -23 28 -10 0 5 -7 13 -16 16 -10 4 -14 1 -12
-6z"/>
<path d="M3431 2825 c0 -5 6 -21 14 -35 8 -14 14 -20 14 -15 0 6 -6 21 -14 35
-8 14 -14 21 -14 15z"/>
<path d="M3461 2744 c0 -11 3 -14 6 -6 3 7 2 16 -1 19 -3 4 -6 -2 -5 -13z"/>
<path d="M3540 2544 c0 -11 7 -29 15 -40 14 -19 14 -19 15 2 0 11 -7 29 -15
40 -14 19 -14 19 -15 -2z"/>
<path d="M1758 3933 c7 -3 16 -2 19 1 4 3 -2 6 -13 5 -11 0 -14 -3 -6 -6z"/>
<path d="M1625 3896 c-57 -14 -116 -46 -109 -58 3 -4 -6 -12 -21 -18 -32 -12
-85 -51 -85 -63 0 -4 -21 -28 -46 -53 -26 -24 -45 -47 -42 -50 3 -2 25 15 49
40 24 24 67 59 94 78 28 18 68 50 90 71 28 26 48 37 70 37 17 0 40 7 51 15 23
17 15 17 -51 1z"/>
<path d="M1778 3903 c12 -2 30 -2 40 0 9 3 -1 5 -23 4 -22 0 -30 -2 -17 -4z"/>
<path d="M1252 3132 c-13 -30 -21 -61 -19 -70 6 -24 49 73 45 101 -2 17 -8 10
-26 -31z"/>
<path d="M2380 2957 c0 -25 25 -55 37 -43 3 3 1 6 -5 6 -6 0 -10 12 -9 26 1
15 -4 29 -10 31 -8 3 -13 -5 -13 -20z"/>
<path d="M2410 2839 c0 -5 5 -7 10 -4 6 3 10 8 10 11 0 2 -4 4 -10 4 -5 0 -10
-5 -10 -11z"/>
<path d="M1126 2553 c-5 -13 -15 -23 -22 -23 -9 0 -14 -11 -14 -28 0 -27 2
-28 50 -29 27 0 47 3 44 8 -3 5 -14 9 -24 9 -15 0 -20 9 -23 43 -3 35 -5 38
-11 20z"/>
<path d="M2053 2413 c-13 -2 -23 -9 -23 -14 0 -13 13 -11 36 6 10 8 17 14 14
13 -3 0 -15 -3 -27 -5z"/>
<path d="M1962 2401 c-11 -7 -10 -10 3 -15 23 -9 25 -8 25 9 0 17 -9 19 -28 6z"/>
<path d="M941 2344 c0 -11 3 -14 6 -6 3 7 2 16 -1 19 -3 4 -6 -2 -5 -13z"/>
<path d="M2001 2309 c-13 -5 -21 -12 -17 -16 3 -3 16 -1 29 5 12 6 29 13 37
15 10 4 8 5 -5 6 -11 0 -31 -5 -44 -10z"/>
<path d="M930 2230 c0 -5 5 -10 11 -10 5 0 7 5 4 10 -3 6 -8 10 -11 10 -2 0
-4 -4 -4 -10z"/>
<path d="M931 2134 c0 -11 3 -14 6 -6 3 7 2 16 -1 19 -3 4 -6 -2 -5 -13z"/>
<path d="M1559 1597 c-62 -20 -109 -50 -109 -67 0 -19 57 -16 104 6 28 13 65
24 83 24 64 0 87 31 37 50 -34 13 -38 13 -115 -13z"/>
<path d="M1787 1582 c-22 -55 -22 -69 2 -48 23 21 30 45 21 70 -5 16 -10 12
-23 -22z"/>
<path d="M4055 1496 c3 -33 9 -64 14 -70 5 -6 11 -45 15 -86 4 -41 11 -79 17
-85 8 -7 9 12 4 65 -8 94 -15 130 -24 130 -4 0 -8 12 -9 28 0 15 -6 38 -12 52
-8 20 -9 14 -5 -34z"/>
<path d="M0 1291 c0 -88 1 -161 3 -161 23 0 406 -52 698 -94 467 -69 1284
-205 1794 -299 105 -20 210 -39 235 -42 25 -4 52 -9 60 -10 8 -1 40 -6 70 -10
92 -11 451 -74 575 -100 65 -14 197 -38 294 -55 97 -16 232 -41 300 -55 68
-14 125 -25 127 -25 2 0 4 44 4 99 l0 98 -73 17 c-39 9 -79 18 -87 20 -8 1
-53 14 -100 28 -146 45 -212 60 -290 64 -103 5 -115 9 -240 66 -25 11 -78 25
-118 30 -40 5 -85 13 -100 19 -15 6 -63 15 -108 19 -45 5 -90 13 -100 19 -41
24 -213 72 -286 81 -43 5 -97 14 -120 21 -57 15 -262 56 -368 73 -80 13 -314
55 -425 76 -27 5 -102 16 -165 25 -63 8 -137 20 -165 27 -27 6 -91 12 -141 13
-50 1 -96 5 -103 9 -6 4 -33 9 -58 12 -26 3 -50 8 -53 12 -10 14 -58 34 -72
30 -7 -3 -19 2 -25 11 -11 14 -14 14 -23 1 -8 -13 -11 -13 -19 -1 -5 8 -14 10
-21 6 -8 -5 -11 -4 -7 2 7 11 -35 22 -106 29 -21 2 -43 7 -49 10 -6 4 -36 8
-68 10 -32 2 -90 11 -130 19 -71 15 -72 15 -90 -7 l-17 -22 -59 23 c-116 44
-190 62 -281 68 l-93 6 0 -162z"/>
<path d="M4100 1220 c0 -5 5 -10 11 -10 5 0 7 5 4 10 -3 6 -8 10 -11 10 -2 0
-4 -4 -4 -10z"/>
<path d="M4100 1174 c0 -8 5 -12 10 -9 6 4 8 11 5 16 -9 14 -15 11 -15 -7z"/>
<path d="M4100 1139 c0 -5 5 -7 10 -4 6 3 10 8 10 11 0 2 -4 4 -10 4 -5 0 -10
-5 -10 -11z"/>
<path d="M0 783 l0 -298 20 33 c19 31 52 43 65 22 11 -18 53 -11 60 9 11 34
40 34 86 1 47 -33 59 -37 59 -16 0 16 -95 116 -110 116 -14 0 -13 33 2 48 8 8
8 15 -3 28 -12 16 -12 17 4 11 11 -4 17 -1 17 9 0 8 7 14 17 12 11 -2 19 7 25
31 6 20 17 35 29 38 16 5 18 8 7 14 -10 7 -10 9 3 9 8 0 20 -5 27 -12 9 -9 12
-5 12 20 0 18 5 32 10 32 6 0 10 -4 10 -10 0 -15 27 -12 44 6 9 8 19 13 23 11
5 -3 14 1 21 9 7 8 9 14 5 14 -4 0 11 9 34 19 23 11 47 28 54 39 8 13 20 17
38 15 19 -3 22 -2 11 5 -16 10 -80 20 -290 47 -69 9 -149 21 -179 26 -30 5
-65 9 -78 9 l-23 0 0 -297z m320 211 c0 -2 -9 -4 -20 -4 -11 0 -20 4 -20 9 0
5 9 7 20 4 11 -3 20 -7 20 -9z m-90 -220 c0 -8 -5 -12 -10 -9 -6 4 -8 11 -5
16 9 14 15 11 15 -7z"/>
<path d="M830 903 c1 -32 5 -77 9 -100 6 -29 5 -44 -3 -47 -6 -3 -2 -4 9 -3
14 2 23 -6 32 -28 11 -28 12 -28 12 -6 1 31 13 20 17 -15 2 -20 -1 -24 -14
-20 -15 5 -15 5 1 -8 21 -16 22 -26 2 -26 -21 0 -19 -37 3 -49 10 -5 24 -25
32 -45 7 -19 18 -32 23 -29 6 3 7 1 3 -5 -9 -15 14 -95 31 -105 7 -4 13 -14
13 -21 0 -8 7 -19 15 -26 9 -7 13 -15 10 -18 -3 -3 3 -14 12 -24 9 -11 29 -42
44 -71 15 -29 32 -51 37 -50 5 1 8 -6 5 -16 -3 -11 3 -24 15 -32 10 -8 24 -24
31 -37 6 -12 16 -22 20 -22 18 0 21 32 5 48 -14 13 -15 30 -9 111 3 53 9 98
11 101 10 9 44 -45 42 -65 -2 -27 11 -65 23 -65 9 0 7 31 -7 98 -2 12 0 22 6
22 5 0 9 3 9 7 -1 5 -1 17 0 28 1 19 2 19 16 -2 9 -12 15 -26 14 -30 -1 -4 0
-12 1 -18 1 -5 2 -51 0 -100 -1 -70 3 -102 19 -141 14 -36 16 -55 9 -62 -13
-13 -2 -32 17 -32 9 0 14 8 12 21 -1 12 3 24 10 26 8 3 10 -4 7 -21 l-4 -26
104 0 c128 0 135 4 126 85 -6 54 -5 57 24 81 17 13 37 29 44 35 7 5 26 15 42
21 17 5 28 14 24 19 -3 5 10 6 28 3 25 -4 29 -3 18 5 -12 9 -11 11 7 11 12 0
24 -4 27 -9 7 -11 46 -2 46 10 0 5 -12 9 -26 9 -22 0 -25 2 -14 15 7 8 21 15
31 15 15 0 19 7 19 31 0 22 5 32 20 36 10 3 26 15 34 28 8 13 30 34 48 46 31
22 30 21 -10 -26 -40 -46 -43 -53 -37 -90 3 -22 10 -44 15 -49 11 -11 43 1 35
13 -3 5 -1 12 5 16 5 3 10 2 10 -3 0 -14 104 -34 165 -31 63 3 81 -5 33 -15
-43 -9 -23 -21 50 -31 28 -4 52 -11 52 -16 0 -9 -43 -12 -138 -9 -39 1 -59 -3
-73 -16 -27 -24 -85 -23 -104 1 -8 11 -15 15 -15 9 0 -5 4 -14 9 -20 19 -19 0
-59 -37 -76 -38 -18 -73 -39 -82 -49 -3 -3 -20 -11 -37 -18 -18 -7 -30 -17
-27 -22 3 -5 10 -7 15 -4 5 4 28 7 52 9 33 2 65 16 134 60 51 32 100 56 110
54 13 -2 19 -14 21 -46 3 -41 2 -43 -40 -61 l-43 -20 265 0 265 -1 40 41 c62
63 87 73 190 74 99 0 320 -23 347 -37 9 -4 18 -23 20 -41 l3 -32 498 -3 497
-2 0 150 c0 147 0 150 -22 150 -12 0 -30 -8 -40 -17 -17 -15 -18 -15 -13 -1 9
22 -38 42 -130 58 -38 7 -84 18 -100 25 -17 7 -53 15 -80 19 -28 4 -63 11 -80
16 -16 5 -42 11 -56 14 -26 4 -169 38 -339 81 -52 13 -111 26 -130 29 -19 3
-78 17 -130 31 -52 13 -106 25 -119 25 -13 0 -49 6 -80 14 -31 7 -81 18 -111
24 -30 7 -122 26 -205 43 -82 17 -175 35 -205 39 -30 5 -148 24 -263 44 -204
35 -256 42 -244 30 3 -3 -3 -20 -13 -36 -10 -17 -16 -37 -13 -44 3 -9 -2 -14
-13 -15 -18 0 -17 -1 1 -9 19 -7 19 -8 2 -15 -13 -5 -15 -11 -7 -20 12 -14 -3
-31 -18 -21 -9 6 -42 -29 -42 -44 0 -6 -15 -10 -33 -10 -18 0 -38 -5 -45 -12
-9 -9 -31 -9 -94 1 -95 14 -161 43 -189 82 -22 31 -59 167 -59 217 0 24 -6 35
-22 42 -23 9 -215 43 -315 55 l-53 7 0 -30 c0 -17 -5 -34 -11 -38 -7 -4 -10 6
-7 32 3 36 1 39 -24 42 -28 3 -28 3 -28 -55z m77 -105 c-3 -7 -5 -2 -5 12 0
14 2 19 5 13 2 -7 2 -19 0 -25z m930 -90 c-3 -7 -5 -2 -5 12 0 14 2 19 5 13 2
-7 2 -19 0 -25z m408 -267 c-3 -12 -10 -21 -15 -21 -5 0 -4 11 2 25 13 29 23
26 13 -4z m73 -28 c-10 -13 -8 -14 17 -11 25 2 29 0 27 -16 -3 -14 1 -17 12
-12 9 3 23 9 31 12 29 12 15 -15 -22 -43 -21 -15 -40 -31 -43 -34 -13 -16 -81
-30 -94 -20 -7 6 -16 8 -19 4 -4 -3 -7 5 -7 20 0 28 87 130 102 121 5 -3 3
-13 -4 -21z m-88 -19 c0 -3 -9 -17 -20 -31 -22 -29 -25 -26 -10 11 8 23 30 37
30 20z m396 -20 c-5 -14 -4 -15 9 -4 25 21 17 -2 -12 -32 -15 -15 -33 -28 -42
-28 -10 0 -8 7 9 25 13 14 20 25 16 25 -5 0 -3 7 4 15 16 20 24 19 16 -1z
m1491 -126 c-3 -8 -6 -5 -6 6 -1 11 2 17 5 13 3 -3 4 -12 1 -19z m-1734 -45
c-7 -2 -19 -2 -25 0 -7 3 -2 5 12 5 14 0 19 -2 13 -5z m-1034 -71 c0 -24 -1
-25 -9 -7 -12 28 -12 47 0 40 6 -3 10 -18 9 -33z m141 9 c0 -23 -16 -36 -25
-21 -9 14 1 40 15 40 5 0 10 -9 10 -19z m10 -81 c0 -5 -9 -14 -21 -20 -19 -11
-20 -10 -9 9 11 22 30 29 30 11z"/>
<path d="M627 573 c-12 -12 -7 -22 8 -17 8 4 15 10 15 15 0 11 -14 12 -23 2z"/>
<path d="M124 428 c2 -45 26 -49 26 -4 0 24 -5 36 -14 36 -9 0 -13 -11 -12
-32z"/>
<path d="M340 441 c0 -5 12 -18 28 -29 52 -36 55 -36 38 -4 -18 35 -66 59 -66
33z"/>
<path d="M479 423 c-14 -17 -32 -33 -40 -36 -11 -4 -10 -6 3 -6 23 -1 72 42
66 59 -2 8 -12 3 -29 -17z"/>
<path d="M65 420 c3 -5 8 -10 11 -10 2 0 4 5 4 10 0 6 -5 10 -11 10 -5 0 -7
-4 -4 -10z"/>
<path d="M0 395 c0 -8 2 -15 4 -15 2 0 6 7 10 15 3 8 1 15 -4 15 -6 0 -10 -7
-10 -15z"/>
<path d="M120 348 c0 -30 1 -31 16 -16 9 9 14 24 11 32 -11 27 -27 17 -27 -16z"/>
<path d="M1993 259 c-2 -18 2 -20 25 -14 44 11 44 18 2 28 -21 5 -26 2 -27
-14z"/>
<path d="M1960 239 c0 -5 5 -7 10 -4 6 3 10 8 10 11 0 2 -4 4 -10 4 -5 0 -10
-5 -10 -11z"/>
<path d="M74 114 c-10 -38 11 -52 24 -16 6 17 8 33 5 36 -13 12 -23 5 -29 -20z"/>
<path d="M1160 84 c0 -3 5 -14 10 -25 7 -11 7 -19 1 -19 -5 0 -12 6 -14 13 -3
6 -6 -3 -6 -20 -1 -32 0 -33 40 -33 35 0 40 3 34 18 -4 9 -8 24 -9 32 0 8 -8
20 -16 27 -16 13 -40 17 -40 7z"/>
<path d="M1271 74 c0 -11 3 -14 6 -6 3 7 2 16 -1 19 -3 4 -6 -2 -5 -13z"/>
<path d="M1275 30 c3 -5 8 -10 11 -10 2 0 4 5 4 10 0 6 -5 10 -11 10 -5 0 -7
-4 -4 -10z"/>
<path d="M1 14 c0 -11 3 -14 6 -6 3 7 2 16 -1 19 -3 4 -6 -2 -5 -13z"/>
</g>
</svg>
