<?xml version="1.0" encoding="utf-8"?>
<!-- Generator: Adobe Illustrator 22.0.1, SVG Export Plug-In . SVG Version: 6.00 Build 0)  -->
<svg version="1.1" id="Layer_1" xmlns="http://www.w3.org/2000/svg" xmlns:xlink="http://www.w3.org/1999/xlink" x="0px" y="0px"
	 viewBox="0 0 300 120" style="enable-background:new 0 0 300 120;" xml:space="preserve">
<style type="text/css">
	.st0{fill:#F4E41E;}
	.st1{opacity:0.5;}
	.st2{opacity:0.75;fill:none;stroke:#F4E41E;stroke-miterlimit:10;enable-background:new    ;}
	.st3{fill:none;stroke:#F4E41E;stroke-miterlimit:10;}
	.st4{opacity:0.4;fill:#F4E41E;enable-background:new    ;}
	.st5{opacity:0.6;fill:#F4E41E;enable-background:new    ;}
	.st6{opacity:0.8;fill:#F4E41E;enable-background:new    ;}
	.st7{opacity:0.9;fill:#F4E41E;enable-background:new    ;}
	.st8{opacity:0.3;fill:#F4E41E;enable-background:new    ;}
	.st9{opacity:0.5;fill:#F4E41E;enable-background:new    ;}
	.st10{opacity:0.7;fill:#F4E41E;enable-background:new    ;}
</style>
<g id="controls">
	<g id="play_pause">
		<g id="play">
			<g id="Polygon">
				<path class="st0" d="M16.5,8.5c0.3,0.1,0.4,0.5,0.2,0.8c-0.1,0.1-0.1,0.2-0.2,0.2l-11.4,7c-0.5,0.3-0.8,0.1-0.8-0.5V2
					c0-0.5,0.4-0.8,0.8-0.5L16.5,8.5z"/>
			</g>
		</g>
	</g>
	<g id="pause">
		<g>
			<path class="st0" d="M24,1h2.2c0.6,0,1,0.4,1,1v14c0,0.6-0.4,1-1,1H24c-0.6,0-1-0.4-1-1V2C23,1.5,23.4,1,24,1z"/>
			<path class="st0" d="M33.8,1H36c0.6,0,1,0.4,1,1v14c0,0.6-0.4,1-1,1h-2.2c-0.6,0-1-0.4-1-1V2C32.8,1.5,33.2,1,33.8,1z"/>
		</g>
	</g>
	<g id="fullscreen">
		<g id="enter">
			<path class="st0" d="M81,1.4c0-0.6,0.4-1,1-1h5.4c0.6,0,0.7,0.3,0.3,0.7l-6,6C81.3,7.5,81,7.4,81,6.8V1.4z"/>
			<path class="st0" d="M81,17.2c0,0.6,0.4,1,1,1h5.4c0.6,0,0.7-0.3,0.3-0.7l-6-6c-0.4-0.4-0.7-0.3-0.7,0.3L81,17.2z"/>
			<path class="st0" d="M98.8,1.4c0-0.6-0.4-1-1-1h-5.4c-0.6,0-0.7,0.3-0.3,0.7l6,6c0.4,0.4,0.7,0.3,0.7-0.3
				C98.8,6.8,98.8,1.4,98.8,1.4z"/>
			<path class="st0" d="M98.8,17.2c0,0.6-0.4,1-1,1h-5.4c-0.6,0-0.7-0.3-0.3-0.7l6-6c0.4-0.4,0.7-0.3,0.7,0.3
				C98.8,11.8,98.8,17.2,98.8,17.2z"/>
		</g>
	</g>
	<g id="exit">
		<g>
			<path class="st0" d="M112.7,5c0,0.6,0.4,1,1,1h4.1c0.6,0,0.7-0.3,0.3-0.7l-4.7-4.7c-0.4-0.4-0.7-0.3-0.7,0.3
				C112.7,0.9,112.7,5,112.7,5z"/>
			<path class="st0" d="M105.6,6c0.6,0,1-0.4,1-1V0.9c0-0.6-0.3-0.7-0.7-0.3l-4.7,4.7c-0.4,0.4-0.3,0.7,0.3,0.7L105.6,6z"/>
			<path class="st0" d="M106.6,13.1c0-0.6-0.4-1-1-1h-4.1c-0.6,0-0.7,0.3-0.3,0.7l4.7,4.7c0.4,0.4,0.7,0.3,0.7-0.3
				C106.6,17.2,106.6,13.1,106.6,13.1z"/>
			<path class="st0" d="M113.7,12.1c-0.6,0-1,0.4-1,1v4.1c0,0.5,0.3,0.7,0.7,0.3l4.7-4.7c0.4-0.4,0.3-0.7-0.3-0.7H113.7z"/>
		</g>
	</g>
	<g id="volume">
		<path class="st0" d="M67,5.8c-0.5,0.4-1.2,0.6-1.8,0.6H62c-0.6,0-1,0.4-1,1v5.7c0,0.6,0.4,1,1,1h3.2c0.3,0,0.7,0,1,0
			c0.3,0.2,0.5,0.4,0.8,0.6l3.5,2.6c0.4,0.3,0.8,0.1,0.8-0.4V3.5c0-0.5-0.4-0.7-0.8-0.4L67,5.8z"/>
		<g id="volume-2">
			<g id="soundbars">
				<path class="st0" d="M73.9,2.5c0,0,3.9-0.8,3.9,7.7S73.9,18,73.9,18"/>
				<path class="st0" d="M72.6,6.4c0,0,2.6-0.4,2.6,3.8s-2.6,3.9-2.6,3.9"/>
			</g>
		</g>
	</g>
	<g id="closed_captions">
		<path class="st0" d="M128.7,8.6c-6.2-4.2-6.5,7.8,0,3.9"/>
		<path class="st0" d="M135.2,8.6c-6.2-4.2-6.5,7.8,0,3.9"/>
		<path class="st0" d="M122.2,3.4h15.7v13.1h-15.7V3.4z M120.8,2v15.7h18.3V2H120.8z"/>
	</g>
	<g id="muted">
		<path class="st0" d="M47,5.8c-0.5,0.4-1.2,0.6-1.8,0.6H42c-0.6,0-1,0.4-1,1v5.7c0,0.6,0.4,1,1,1h3.2c0.3,0,0.7,0,1,0
			c0.3,0.2,0.5,0.4,0.8,0.6l3.5,2.6c0.4,0.3,0.8,0.1,0.8-0.4V3.5c0-0.5-0.4-0.7-0.8-0.4L47,5.8z"/>
		<line class="st0" x1="52.8" y1="7" x2="58.2" y2="12.4"/>
		<line class="st0" x1="52.8" y1="12.4" x2="58.2" y2="7"/>
	</g>
	<g id="skip_forward">
		<g id="play_pause-2">
			<g id="play-2">
				<path id="Polygon-2" class="st0" d="M192.2,2.2l-4.3,2.2V0L192.2,2.2z"/>
			</g>
		</g>
		<g id="play_pause-3">
			<g id="play-3">
				<path id="Polygon-3" class="st0" d="M194.9,2.2l-4.3,2.2V0L194.9,2.2z"/>
			</g>
		</g>
		<path class="st0" d="M190,2.2c-4.5,0-8.2,3.6-8.2,8.1l0,0"/>
		<path class="st0" d="M181.8,9.8c0,4.5,3.6,8.2,8.1,8.2l0,0"/>
		<path class="st0" d="M189.6,18c4.5,0,8.2-3.6,8.2-8.1l0,0"/>
	</g>
	<g id="skipback">
		<path class="st0" d="M162.7,9.7c0,4.5,3.6,8.2,8.1,8.2l0,0"/>
		<path class="st0" d="M170.4,17.8c4.5,0,8.2-3.6,8.2-8.1l0,0"/>
		<path class="st0" d="M178.5,10c0-4.5-3.6-8.2-8.1-8.2l0,0"/>
		<g id="play_pause-4">
			<g id="play-4">
				<path id="Polygon-4" class="st0" d="M166.6,2.2l4.3,2.2V0L166.6,2.2z"/>
			</g>
		</g>
		<g id="play_pause-5">
			<g id="play-5">
				<path id="Polygon-5" class="st0" d="M163.9,2.2l4.3,2.2V0L163.9,2.2z"/>
			</g>
		</g>
	</g>
	<g id="close_captions">
		<path class="st0" d="M143.2,3h14c1.1,0,2,0.9,2,2v10c0,1.1-0.9,2-2,2h-14c-1.1,0-2-0.9-2-2V5C141.2,3.9,142.1,3,143.2,3z"/>
		<path class="st0" d="M146.4,13.8c-0.8,0-1.6-0.4-2.1-1c-1.1-1.4-1-3.4,0.1-4.8c0.5-0.6,2-1.7,4.6,0.2L148.4,9
			c-1.4-1-2.6-1.1-3.3-0.3c-0.8,1-0.8,2.4-0.1,3.5c0.7,0.9,1.9,0.8,3.4-0.1l0.5,0.9C148.2,13.5,147.3,13.7,146.4,13.8z"/>
		<path class="st0" d="M153.9,13.8c-0.8,0-1.6-0.4-2.1-1c-1.1-1.4-1-3.4,0.1-4.8c0.5-0.6,2-1.7,4.6,0.2L156,9
			c-1.4-1-2.6-1.1-3.3-0.3c-0.8,1-0.8,2.4-0.1,3.5c0.7,0.9,1.9,0.8,3.4-0.1l0.5,0.9C155.7,13.5,154.8,13.7,153.9,13.8z"/>
	</g>
	<path class="st0" d="M218.6,9.4c0-0.6-0.4-1.1-1-1.2l-1.9-0.5c-0.4-0.1-0.6-0.4-0.6-0.8c0-0.1,0.1-0.2,0.1-0.3l1-1.6
		c0.3-0.5,0.2-1.1-0.1-1.6l0,0c-0.4-0.4-1.1-0.5-1.6-0.2l-1.6,1c-0.3,0.2-0.8,0.2-1-0.2c-0.1-0.1-0.1-0.2-0.1-0.3l-0.5-1.8
		c-0.2-0.6-0.7-1-1.2-1l0,0c-0.6,0-1.1,0.4-1.2,1l-0.5,1.8c-0.1,0.4-0.4,0.6-0.8,0.6c-0.1,0-0.2-0.1-0.3-0.1l-1.6-1
		c-0.5-0.3-1.1-0.2-1.6,0.2l0,0c-0.4,0.4-0.5,1.1-0.2,1.6l1,1.6c0.2,0.3,0.2,0.8-0.2,1c-0.1,0.1-0.2,0.1-0.3,0.1l-1.9,0.5
		c-0.6,0.2-1,0.7-1,1.2l0,0c0,0.6,0.4,1.1,1,1.2l1.9,0.5c0.4,0.1,0.6,0.4,0.6,0.8c0,0.1-0.1,0.2-0.1,0.3l-1,1.6
		c-0.3,0.5-0.2,1.1,0.2,1.6l0,0c0.4,0.4,1.1,0.5,1.6,0.2l1.6-1c0.3-0.2,0.8-0.2,1,0.2c0.1,0.1,0.1,0.2,0.1,0.3l0.5,1.9
		c0.2,0.6,0.7,1,1.2,1l0,0c0.6,0,1.1-0.4,1.2-1l0.5-1.9c0.1-0.4,0.4-0.6,0.8-0.6c0.1,0,0.2,0.1,0.3,0.1l1.6,1
		c0.5,0.3,1.1,0.2,1.6-0.2l0,0c0.4-0.4,0.5-1.1,0.2-1.6l-1-1.6c-0.2-0.3-0.2-0.8,0.2-1c0.1-0.1,0.2-0.1,0.3-0.1l1.9-0.5
		C218.2,10.5,218.6,10,218.6,9.4L218.6,9.4z M213,9.4c0,1.6-1.3,2.8-2.8,2.8s-2.8-1.3-2.8-2.8c0-1.6,1.3-2.8,2.8-2.8l0,0
		C211.7,6.6,213,7.8,213,9.4L213,9.4z"/>
	<path class="st0" d="M225,2.8h10c1.1,0,2,0.9,2,2v10c0,1.1-0.9,2-2,2h-10c-1.1,0-2-0.9-2-2v-10C223,3.7,223.9,2.8,225,2.8z"/>
	<g id="loop">
		<path class="st0" d="M254.2,6.5c2,2.5,1.6,6.1-0.9,8c-2.5,2-6.1,1.6-8-0.9c-1.8-2.2-1.7-5.3,0.2-7.4l-1.6-1.6
			c-3,3.2-2.8,8.3,0.4,11.3s8.3,2.8,11.3-0.4c2.8-3,2.9-7.6,0.2-10.6L254.2,6.5z"/>
		<g id="play_pause-6">
			<g id="play-6">
				<g id="Polygon-6">
					<path class="st0" d="M251.3,3.4c-0.1-0.4,0.2-0.8,0.6-0.9c0.1,0,0.2,0,0.3,0l5.5,0.8c0.5,0.1,0.7,0.5,0.3,0.8l-5,5
						c-0.4,0.4-0.8,0.3-0.8-0.3L251.3,3.4z"/>
				</g>
			</g>
		</g>
	</g>
	<g id="loop_off" class="st1">
		<path class="st0" d="M274.4,6.8c2,2.5,1.6,6.1-0.9,8s-6.1,1.6-8-0.9c-1.8-2.2-1.7-5.3,0.2-7.4l-1.6-1.6c-3,3.2-2.8,8.3,0.4,11.3
			c3.2,3,8.3,2.8,11.3-0.4c2.8-3,2.9-7.6,0.2-10.6L274.4,6.8z"/>
		<g id="play_pause-7">
			<g id="play-7">
				<g id="Polygon-7">
					<path class="st0" d="M271.5,3.6c-0.1-0.4,0.2-0.8,0.6-0.9c0.1,0,0.2,0,0.3,0l5.5,0.8c0.5,0.1,0.7,0.5,0.3,0.8l-5,5
						c-0.4,0.4-0.8,0.3-0.8-0.3L271.5,3.6z"/>
				</g>
			</g>
		</g>
	</g>
</g>
<g id="Polygon-8">
	<path class="st0" d="M60.3,77c0.6,0.2,0.8,0.8,0.6,1.4c-0.1,0.3-0.3,0.5-0.6,0.6L30,96.5c-1,0.6-1.7,0.1-1.7-1v-35
		c0-1.1,0.8-1.5,1.7-1L60.3,77z"/>
</g>
<path id="Ellipse" class="st2" d="M2.5,79c0-20.7,16.8-37.5,37.5-37.5S77.5,58.3,77.5,79S60.7,116.5,40,116.5S2.5,99.7,2.5,79
	L2.5,79z"/>
<g id="big_play_hover">
	<g id="Polygon2">
		<path class="st0" d="M140.3,77c0.6,0.2,0.8,0.8,0.6,1.4c-0.1,0.3-0.3,0.5-0.6,0.6L110,96.5c-1,0.6-1.7,0.1-1.7-1v-35
			c0-1.1,0.8-1.5,1.7-1L140.3,77z"/>
	</g>
	<path id="Ellipse2" class="st3" d="M82.5,79c0-20.7,16.8-37.5,37.5-37.5s37.5,16.8,37.5,37.5s-16.8,37.5-37.5,37.5
		S82.5,99.7,82.5,79z"/>
</g>
<g id="Loading">
	<circle class="st0" cx="201.9" cy="47.1" r="8.1"/>
	<circle class="st4" cx="233.9" cy="79" r="5"/>
	<circle class="st5" cx="201.9" cy="110.9" r="6"/>
	<circle class="st6" cx="170.1" cy="79" r="7"/>
	<circle class="st7" cx="178.2" cy="56.3" r="7.5"/>
	<circle class="st8" cx="226.3" cy="56.1" r="4.5"/>
	<circle class="st9" cx="225.8" cy="102.8" r="5.5"/>
	<circle class="st10" cx="178.2" cy="102.8" r="6.5"/>
</g>
<g id="Guides">
	<g id="play_pause-8">
		<g id="play-8">
			<g id="Polygon-9">
				<path class="st0" d="M298.8,9.6c0,0.4-0.4,0.7-0.9,0.7c-0.1,0-0.2,0-0.2-0.1l-4.9-1.8c-0.5-0.2-0.5-0.6-0.1-0.9L299,4
					c0.5-0.3,0.8-0.1,0.7,0.5L298.8,9.6z"/>
			</g>
		</g>
	</g>
	<path id="replay" class="st0" d="M290.2,16.1c-1,0-2-0.2-2.9-0.7c-2-1-3.2-3-3.2-5.2c0.1-3.4,2.9-6,6.3-6c2.5,0.1,4.8,1.7,5.6,4.1
		l0.1-0.1l2.1,1.1c-0.6-4.4-4.7-7.5-9.1-6.9c-3.9,0.6-6.9,3.9-7,7.9c0,2.9,1.7,5.6,4.3,7c1.2,0.6,2.5,0.9,3.8,1c2.6,0,5-1.2,6.6-3.3
		l-1.8-0.9C293.7,15.3,292,16.1,290.2,16.1z"/>
</g>
</svg>
